<svg xmlns="http://www.w3.org/2000/svg" xmlns:xlink="http://www.w3.org/1999/xlink" zoomAndPan="magnify" preserveAspectRatio="xMidYMid meet" version="1.0" viewBox="45.25 19.62 268.27 318.04"><defs><g/><clipPath id="4f4dea033c"><path d="M 73.160156 19.617188 L 280 19.617188 L 280 267 L 73.160156 267 Z M 73.160156 19.617188 " clip-rule="nonzero"/></clipPath><clipPath id="e990ba4717"><path d="M 138 56 L 241 56 L 241 193.75 L 138 193.75 Z M 138 56 " clip-rule="nonzero"/></clipPath></defs><g clip-path="url(#4f4dea033c)"><path fill="#893800" d="M 250.304688 266.492188 C 246.386719 262.113281 243.09375 257.171875 240.371094 251.925781 C 237.671875 246.671875 235.636719 241.015625 234.621094 235.113281 C 233.613281 229.226562 233.71875 223.039062 235.371094 217.175781 C 236.992188 211.320312 240.121094 205.863281 244.105469 201.335938 C 251.75 192.589844 257.992188 182.757812 262.71875 172.226562 C 267.421875 161.683594 270.585938 150.484375 272.296875 139.082031 C 274.023438 127.691406 274.355469 116.074219 273.238281 104.628906 C 272.675781 98.914062 271.746094 93.238281 270.363281 87.710938 C 268.964844 82.207031 267.148438 76.765625 264.484375 72.050781 C 258.9375 62.082031 251.695312 53.109375 243.027344 45.855469 C 234.375 38.601562 224.210938 33.253906 213.367188 30.269531 C 207.941406 28.78125 202.371094 27.796875 196.734375 27.390625 C 191.121094 26.972656 185.347656 27.050781 179.722656 27.519531 C 168.386719 28.496094 157.195312 31.191406 146.574219 35.351562 C 141.257812 37.421875 136.085938 39.871094 131.097656 42.628906 C 126.136719 45.402344 121.277344 48.515625 116.914062 51.9375 L 116.222656 52.496094 L 115.40625 53.234375 C 114.867188 53.71875 114.265625 54.226562 113.855469 54.675781 C 113.40625 55.144531 112.949219 55.578125 112.492188 56.066406 L 111.125 57.601562 C 109.351562 59.707031 107.675781 61.929688 106.148438 64.265625 C 103.101562 68.949219 100.523438 73.992188 98.589844 79.210938 C 97.640625 81.820312 96.839844 84.46875 96.296875 87.121094 L 95.953125 89.097656 L 95.632812 91.285156 L 94.941406 95.675781 C 94.039062 101.460938 93.003906 107.113281 93.792969 112.039062 C 93.996094 113.265625 94.292969 114.457031 94.726562 115.605469 C 94.9375 116.183594 95.1875 116.746094 95.453125 117.304688 C 95.800781 118.054688 96.082031 118.574219 96.433594 119.390625 C 97.109375 120.914062 97.695312 122.421875 98.125 124.148438 C 98.550781 125.855469 98.742188 127.742188 98.652344 129.53125 C 98.566406 131.328125 98.253906 132.953125 97.9375 134.445312 L 97.695312 135.550781 L 97.574219 136.09375 L 97.515625 136.363281 L 97.441406 136.667969 L 97.402344 136.800781 C 97.296875 137.164062 97.230469 137.460938 97.03125 137.992188 C 96.863281 138.464844 96.675781 138.972656 96.515625 139.316406 C 95.859375 140.859375 95.132812 142.214844 94.398438 143.566406 C 93.660156 144.90625 92.902344 146.207031 92.128906 147.492188 C 89.035156 152.613281 85.796875 157.535156 82.558594 162.449219 L 80.429688 165.671875 C 80.4375 165.660156 80.308594 165.855469 80.425781 165.671875 L 80.355469 165.792969 L 80.210938 166.027344 L 80.175781 166.097656 L 80.167969 166.125 L 80.140625 166.167969 L 80.042969 166.40625 C 79.992188 166.578125 79.933594 166.746094 79.90625 166.933594 C 79.84375 167.304688 79.828125 167.71875 79.875 168.160156 C 80.070312 169.945312 81.351562 171.964844 82.996094 173.039062 C 83.40625 173.316406 83.835938 173.539062 84.277344 173.703125 C 84.386719 173.75 84.496094 173.773438 84.609375 173.816406 C 84.726562 173.847656 84.53125 173.800781 84.609375 173.820312 L 84.738281 173.855469 L 85.007812 173.917969 C 85.398438 174.007812 85.402344 174.007812 85.753906 174.066406 C 86.867188 174.253906 88.207031 174.160156 90.214844 174.460938 C 91.207031 174.625 92.429688 174.992188 93.503906 175.714844 C 94.023438 176.054688 94.589844 176.574219 94.761719 176.75 C 94.949219 176.9375 95.160156 177.152344 95.339844 177.351562 C 95.503906 177.542969 95.671875 177.730469 95.824219 177.933594 C 97.105469 179.535156 97.890625 181.589844 98.121094 183.503906 C 98.257812 184.445312 98.238281 185.472656 98.238281 186.109375 C 98.234375 186.824219 98.265625 187.457031 98.246094 188.414062 C 98.238281 188.65625 98.222656 188.980469 98.152344 189.410156 C 98.085938 189.835938 97.871094 190.507812 97.570312 190.992188 C 97.429688 191.222656 97.277344 191.433594 97.160156 191.578125 L 96.960938 191.820312 L 96.730469 192.109375 C 96.402344 192.542969 96.070312 193.089844 95.96875 193.328125 L 95.867188 193.582031 L 95.832031 193.6875 C 95.808594 193.742188 95.761719 193.898438 95.730469 194 C 95.671875 194.234375 95.609375 194.476562 95.582031 194.695312 C 95.558594 194.8125 95.554688 194.90625 95.542969 195.007812 L 95.539062 195.140625 L 95.539062 195.199219 C 95.535156 195.171875 95.539062 195.332031 95.527344 195.160156 L 95.546875 195.4375 C 95.550781 195.558594 95.558594 195.503906 95.5625 195.550781 C 95.558594 195.570312 95.589844 195.710938 95.601562 195.804688 C 95.6875 196.210938 95.847656 196.652344 96.035156 196.988281 C 96.125 197.148438 96.222656 197.28125 96.269531 197.34375 C 96.316406 197.410156 96.328125 197.355469 96.023438 197.230469 L 96.085938 202.847656 C 96.480469 202.644531 96.355469 202.597656 96.265625 202.808594 C 96.15625 202.984375 96.058594 203.355469 96.054688 203.507812 C 96.054688 203.5625 96.042969 203.472656 96.054688 203.691406 L 96.0625 203.765625 L 96.105469 203.894531 C 96.15625 204.019531 96.371094 204.308594 96.707031 204.613281 C 96.875 204.765625 97.0625 204.921875 97.265625 205.078125 L 97.425781 205.199219 L 97.503906 205.257812 L 97.773438 205.464844 L 97.886719 205.574219 C 98.015625 205.695312 98.136719 205.828125 98.246094 205.964844 L 98.390625 206.164062 C 98.476562 206.289062 98.523438 206.367188 98.574219 206.457031 C 98.671875 206.621094 98.738281 206.757812 98.796875 206.882812 C 99.222656 207.820312 99.410156 208.484375 99.625 209.230469 C 100.019531 210.679688 100.3125 212.09375 100.441406 213.6875 C 100.542969 215.21875 100.511719 216.964844 99.949219 218.71875 C 99.675781 219.570312 99.34375 220.261719 99.085938 220.84375 C 98.824219 221.429688 98.609375 221.9375 98.417969 222.472656 L 98.382812 222.574219 L 98.378906 222.585938 C 98.449219 222.363281 98.398438 222.53125 98.410156 222.484375 L 98.402344 222.515625 L 98.382812 222.574219 L 98.316406 222.8125 C 98.261719 222.972656 98.210938 223.148438 98.214844 223.195312 L 98.164062 223.441406 L 98.113281 223.789062 C 98.066406 224.261719 98.039062 224.761719 98.078125 225.273438 C 98.136719 226.289062 98.378906 227.355469 98.742188 228.199219 C 98.910156 228.605469 99.152344 228.964844 99.21875 229.035156 L 99.1875 229.011719 L 99.230469 229.050781 L 99.324219 229.136719 L 99.503906 229.308594 L 99.871094 229.644531 L 100.472656 230.15625 C 101.335938 230.847656 102.261719 231.398438 103.285156 231.851562 C 103.78125 232.097656 104.335938 232.261719 104.871094 232.464844 C 105.4375 232.617188 105.980469 232.808594 106.570312 232.925781 C 107.734375 233.1875 108.941406 233.390625 110.179688 233.511719 C 111.410156 233.65625 112.675781 233.707031 113.9375 233.757812 C 115.210938 233.773438 116.484375 233.792969 117.773438 233.75 C 119.058594 233.738281 120.355469 233.640625 121.644531 233.578125 C 122.9375 233.5 124.234375 233.371094 125.53125 233.269531 L 125.746094 233.253906 L 125.863281 233.257812 C 128.464844 233.335938 131.210938 233.289062 133.894531 233.175781 C 136.589844 233.054688 139.285156 232.855469 141.96875 232.574219 C 147.335938 232 152.664062 231.109375 157.851562 229.742188 C 163.035156 228.378906 168.085938 226.519531 172.671875 223.910156 C 174.953125 222.597656 177.121094 221.097656 179.042969 219.339844 C 180.023438 218.453125 180.855469 217.558594 181.792969 216.507812 C 182.683594 215.503906 183.507812 214.5 184.335938 213.433594 C 187.597656 209.183594 190.300781 204.480469 192.472656 199.535156 C 194.640625 194.585938 196.3125 189.402344 197.457031 184.085938 C 199.707031 173.449219 199.964844 162.324219 198.007812 151.511719 C 199.269531 156.855469 200.03125 162.339844 200.222656 167.859375 C 200.421875 173.378906 200.046875 178.929688 199.140625 184.402344 C 198.214844 189.875 196.773438 195.28125 194.734375 200.476562 C 192.6875 205.667969 190.070312 210.664062 186.808594 215.257812 C 186 216.394531 185.121094 217.546875 184.234375 218.632812 C 183.386719 219.664062 182.378906 220.816406 181.351562 221.796875 C 179.277344 223.816406 176.953125 225.53125 174.519531 227.03125 C 169.644531 230.019531 164.324219 232.074219 158.941406 233.65625 C 153.535156 235.21875 148.027344 236.277344 142.492188 237.003906 C 139.722656 237.363281 136.941406 237.636719 134.15625 237.828125 C 131.355469 238.015625 128.613281 238.140625 125.722656 238.125 L 126.054688 238.109375 C 124.707031 238.25 123.375 238.410156 122.023438 238.527344 C 120.667969 238.628906 119.324219 238.761719 117.957031 238.804688 C 116.597656 238.890625 115.222656 238.894531 113.84375 238.898438 C 112.460938 238.867188 111.074219 238.835938 109.671875 238.699219 C 108.269531 238.582031 106.851562 238.378906 105.425781 238.082031 C 104.714844 237.949219 103.996094 237.726562 103.28125 237.542969 C 102.570312 237.292969 101.851562 237.082031 101.148438 236.757812 C 99.738281 236.167969 98.351562 235.375 97.128906 234.425781 L 96.207031 233.667969 L 95.835938 233.335938 L 95.652344 233.171875 L 95.558594 233.085938 L 95.511719 233.046875 L 95.394531 232.933594 C 94.527344 232.054688 94.105469 231.246094 93.726562 230.445312 C 93.023438 228.859375 92.671875 227.308594 92.53125 225.683594 C 92.457031 224.875 92.46875 224.042969 92.546875 223.199219 L 92.621094 222.558594 L 92.765625 221.832031 C 92.894531 221.253906 92.898438 221.269531 93.09375 220.640625 C 93.558594 219.191406 94.277344 217.804688 94.5 217.015625 C 94.742188 216.230469 94.773438 215.277344 94.6875 214.171875 C 94.585938 213.128906 94.332031 211.933594 94.003906 210.835938 C 93.851562 210.308594 93.640625 209.707031 93.503906 209.445312 L 93.496094 209.429688 L 93.546875 209.507812 L 93.617188 209.609375 C 93.699219 209.714844 93.792969 209.816406 93.898438 209.902344 L 93.957031 209.960938 L 93.945312 209.949219 L 93.921875 209.929688 L 93.910156 209.917969 C 94.355469 210.265625 94.027344 210.007812 94.121094 210.082031 L 94.089844 210.058594 L 93.972656 209.972656 L 93.726562 209.796875 C 93.402344 209.558594 93.074219 209.296875 92.75 209.007812 C 92.101562 208.425781 91.40625 207.722656 90.839844 206.671875 C 90.558594 206.15625 90.332031 205.542969 90.210938 204.941406 C 90.144531 204.640625 90.109375 204.359375 90.085938 204.027344 C 90.078125 203.921875 90.054688 203.5 90.074219 203.21875 C 90.140625 202.050781 90.398438 201.117188 90.882812 200.109375 C 91.132812 199.609375 91.441406 199.105469 91.890625 198.601562 C 92.339844 198.105469 92.945312 197.597656 93.757812 197.253906 L 93.816406 202.871094 C 92.828125 202.472656 92.257812 201.9375 91.808594 201.464844 C 91.363281 200.984375 91.039062 200.511719 90.757812 200.039062 C 90.214844 199.097656 89.855469 198.15625 89.613281 197.132812 C 89.558594 196.859375 89.503906 196.648438 89.460938 196.300781 C 89.441406 196.164062 89.414062 195.929688 89.414062 195.871094 L 89.390625 195.59375 C 89.375 195.328125 89.382812 195.398438 89.382812 195.285156 L 89.378906 195.070312 C 89.382812 194.929688 89.378906 194.777344 89.390625 194.652344 C 89.410156 194.382812 89.425781 194.113281 89.464844 193.863281 C 89.527344 193.355469 89.628906 192.878906 89.746094 192.402344 C 89.816406 192.152344 89.867188 191.953125 89.964844 191.667969 L 90.109375 191.25 L 90.214844 190.992188 C 90.683594 189.875 91.160156 189.183594 91.679688 188.425781 C 91.855469 188.171875 92.519531 187.324219 92.175781 187.792969 C 92.0625 187.960938 91.96875 188.277344 91.960938 188.34375 C 91.949219 188.40625 91.957031 188.367188 91.957031 188.242188 L 91.921875 186.144531 C 91.914062 185.316406 91.917969 184.871094 91.835938 184.355469 C 91.691406 183.359375 91.363281 182.582031 90.804688 181.886719 C 90.742188 181.796875 90.65625 181.714844 90.589844 181.628906 L 90.402344 181.433594 C 90.046875 181.101562 90.0625 181.132812 89.96875 181.0625 C 89.820312 180.972656 89.613281 180.886719 89.15625 180.8125 C 88.261719 180.652344 86.640625 180.722656 84.851562 180.480469 C 84.472656 180.441406 83.757812 180.300781 83.433594 180.222656 L 83.164062 180.15625 L 83.03125 180.121094 L 82.765625 180.046875 C 82.53125 179.972656 82.285156 179.902344 82.050781 179.816406 C 81.109375 179.476562 80.226562 179.027344 79.410156 178.496094 C 77.777344 177.429688 76.421875 176.042969 75.375 174.445312 C 74.332031 172.847656 73.574219 171.019531 73.304688 168.984375 C 73.175781 167.96875 73.175781 166.902344 73.351562 165.824219 C 73.4375 165.285156 73.578125 164.746094 73.753906 164.21875 C 73.847656 163.953125 73.957031 163.695312 74.0625 163.433594 L 74.285156 162.988281 L 74.398438 162.765625 C 74.4375 162.683594 74.46875 162.625 74.492188 162.59375 L 74.628906 162.359375 L 74.84375 162.011719 L 75.144531 161.550781 L 75.738281 160.628906 L 76.933594 158.78125 C 80.101562 153.859375 83.265625 148.929688 86.1875 143.96875 C 87.621094 141.503906 89.074219 138.960938 90.0625 136.601562 C 90.210938 136.277344 90.257812 136.089844 90.347656 135.878906 C 90.425781 135.726562 90.53125 135.308594 90.621094 134.964844 L 90.65625 134.828125 C 90.679688 134.75 90.605469 135.066406 90.652344 134.867188 L 90.707031 134.601562 L 90.820312 134.066406 L 91.035156 133.019531 C 91.316406 131.640625 91.527344 130.363281 91.5625 129.226562 C 91.605469 128.082031 91.488281 127.023438 91.195312 125.878906 C 90.917969 124.757812 90.4375 123.511719 89.921875 122.359375 C 89.699219 121.824219 89.292969 121.046875 89.019531 120.460938 C 88.652344 119.695312 88.300781 118.917969 88.007812 118.117188 C 87.398438 116.523438 86.972656 114.851562 86.695312 113.183594 C 86.152344 109.835938 86.253906 106.5625 86.546875 103.480469 C 86.847656 100.386719 87.328125 97.445312 87.78125 94.542969 L 88.4375 90.230469 L 88.75 88.058594 L 89.148438 85.699219 C 89.777344 82.59375 90.675781 79.605469 91.722656 76.695312 C 93.851562 70.890625 96.632812 65.414062 99.96875 60.238281 C 101.640625 57.65625 103.492188 55.171875 105.5 52.785156 L 107.054688 51.027344 C 107.597656 50.441406 108.195312 49.851562 108.765625 49.269531 C 109.363281 48.644531 109.882812 48.207031 110.433594 47.707031 L 111.25 46.96875 L 112.265625 46.132812 C 117.121094 42.277344 122.207031 39.070312 127.5 36.132812 C 132.796875 33.226562 138.269531 30.660156 143.90625 28.488281 C 155.160156 24.125 167.046875 21.300781 179.117188 20.304688 C 185.195312 19.824219 191.195312 19.761719 197.292969 20.234375 C 203.367188 20.691406 209.414062 21.777344 215.289062 23.476562 C 227.054688 26.84375 238.082031 32.808594 247.339844 40.746094 C 256.609375 48.667969 264.246094 58.375 270 68.976562 C 271.53125 71.746094 272.710938 74.640625 273.710938 77.527344 C 274.710938 80.421875 275.523438 83.351562 276.207031 86.296875 C 277.570312 92.191406 278.4375 98.148438 278.921875 104.121094 C 279.867188 116.074219 279.320312 128.113281 277.300781 139.898438 C 275.238281 151.671875 271.675781 163.199219 266.539062 173.988281 C 263.949219 179.375 261.011719 184.589844 257.660156 189.523438 C 255.984375 191.996094 254.21875 194.402344 252.355469 196.730469 C 250.503906 199.039062 248.511719 201.351562 246.53125 203.480469 C 242.605469 207.625 239.570312 212.5 237.835938 217.914062 C 236.109375 223.3125 235.695312 229.136719 236.410156 234.851562 C 237.113281 240.578125 238.882812 246.179688 241.25 251.503906 C 243.644531 256.816406 246.636719 261.90625 250.304688 266.492188 " fill-opacity="1" fill-rule="nonzero"/></g><g clip-path="url(#e990ba4717)"><path fill="#e3ba5b" d="M 229.210938 68.15625 C 219.53125 63.382812 209.265625 59.828125 198.644531 57.875 C 188.238281 55.960938 177.078125 55.023438 166.773438 57.949219 C 158.257812 60.367188 150.097656 65.757812 145.378906 73.371094 C 142.984375 77.234375 141.878906 81.859375 143.933594 86.113281 C 145.863281 90.105469 149.46875 93.664062 152.855469 96.441406 C 159.476562 101.867188 167.5 105.148438 175.800781 107.003906 C 184.433594 108.9375 193.523438 109.777344 202.363281 109.53125 C 211.445312 109.277344 220.585938 107.515625 228.605469 103.097656 C 235.839844 99.109375 244.613281 91.953125 239.066406 83.046875 C 229.371094 67.484375 211.0625 60.519531 193.515625 59.027344 C 174.253906 57.390625 153.386719 64.285156 142.367188 81.058594 C 130.339844 99.363281 150.457031 118.277344 165.910156 125.65625 C 182.066406 133.371094 202.570312 134.042969 218.378906 124.929688 C 225.558594 120.789062 230.910156 113.832031 230.769531 105.257812 C 230.613281 95.585938 224.535156 87.894531 216.917969 82.582031 C 200.933594 71.433594 180.136719 65.023438 161.300781 72.609375 C 153.425781 75.78125 144.40625 81.542969 141.179688 89.800781 C 137.761719 98.535156 141.949219 108.457031 149.082031 113.925781 C 156.910156 119.929688 167.304688 121.941406 176.945312 122.492188 C 186.195312 123.023438 195.65625 121.839844 204.289062 118.382812 C 208.691406 116.621094 212.855469 114.320312 216.644531 111.464844 C 220.003906 108.933594 223.402344 106 224.765625 101.878906 C 227.722656 92.957031 217.535156 85.273438 210.695312 81.773438 C 202.203125 77.433594 192.464844 76.753906 183.308594 79.257812 C 174.167969 81.761719 164.523438 86.863281 160.152344 95.65625 C 156.007812 103.984375 155.941406 114.445312 160.535156 122.621094 C 165.140625 130.816406 174.015625 133.917969 182.777344 135.457031 C 193.023438 137.253906 204.246094 137.347656 214.320312 134.476562 C 218.277344 133.351562 222.875 131.316406 225.304688 127.824219 C 226.335938 126.34375 226.851562 124.386719 225.859375 122.75 C 224.765625 120.945312 222.234375 119.664062 220.425781 118.746094 C 212.683594 114.816406 202.847656 113.953125 194.316406 114.988281 C 185.875 116.019531 177.851562 119.394531 171.691406 125.339844 C 168.929688 128.003906 165.824219 131.496094 167.355469 135.613281 C 168.746094 139.355469 172.78125 140.890625 176.25 142.046875 C 186.109375 145.335938 196.839844 146 207.007812 143.804688 C 211.589844 142.820312 216.058594 141.105469 219.757812 138.171875 C 222.929688 135.65625 223.660156 131.855469 220.21875 129.128906 C 216.535156 126.214844 211.410156 125.660156 206.898438 125.21875 C 201.253906 124.667969 195.5625 124.585938 189.902344 124.96875 C 180.335938 125.617188 169.9375 127.132812 163.585938 135.105469 C 161.425781 137.820312 158.332031 142.570312 160.554688 146.039062 C 161.402344 147.363281 162.84375 148.070312 164.261719 148.597656 C 166.921875 149.589844 169.742188 150.21875 172.542969 150.640625 C 182.878906 152.203125 193.308594 150.585938 203.53125 148.964844 C 203.324219 148.21875 203.117188 147.480469 202.914062 146.734375 C 198.144531 148.082031 193.46875 149.707031 188.898438 151.621094 C 185.636719 152.988281 181.820312 154.25 180.84375 158.050781 C 180.640625 158.839844 181.214844 159.429688 181.957031 159.511719 C 190.925781 160.5 199.816406 158.582031 207.765625 154.371094 C 208.601562 153.925781 208.472656 152.4375 207.488281 152.257812 C 198.03125 150.535156 188.785156 154.089844 181.152344 159.546875 C 177.925781 161.855469 174.578125 165.03125 174.390625 169.277344 C 174.203125 173.5625 177.453125 175.96875 181.023438 177.441406 C 190.304688 181.261719 201.222656 181.769531 210.675781 178.195312 C 213.703125 177.054688 216.585938 174.507812 215.609375 170.929688 C 214.574219 167.144531 209.796875 165.730469 206.492188 164.839844 C 197.566406 162.4375 183.976562 163.375 178.953125 172.4375 C 178.714844 172.867188 178.75 173.496094 179.132812 173.839844 C 182.605469 176.949219 187.273438 177.226562 191.730469 177.363281 C 197.148438 177.523438 202.558594 176.957031 207.855469 175.804688 C 209.308594 175.488281 208.691406 173.273438 207.238281 173.574219 C 199.402344 175.195312 192.160156 178.710938 185.832031 183.582031 C 185.21875 184.054688 184.960938 185.160156 185.832031 185.578125 C 192.632812 188.816406 199.953125 187.710938 207.082031 186.359375 C 208.550781 186.082031 207.921875 183.878906 206.46875 184.132812 C 200.835938 185.121094 195.582031 187.371094 190.863281 190.582031 C 190.078125 191.117188 190.121094 192.4375 191.140625 192.695312 C 194.414062 193.523438 197.65625 193.496094 200.914062 192.59375 C 202.34375 192.199219 201.738281 189.96875 200.300781 190.367188 C 197.433594 191.160156 194.632812 191.199219 191.753906 190.464844 C 191.84375 191.171875 191.9375 191.875 192.027344 192.578125 C 196.601562 189.46875 201.625 187.320312 207.082031 186.359375 C 206.878906 185.617188 206.675781 184.875 206.46875 184.132812 C 200.019531 185.351562 193.171875 186.523438 187 183.582031 C 187 184.246094 187 184.910156 187 185.578125 C 193.1875 180.816406 200.191406 177.386719 207.855469 175.804688 C 207.648438 175.0625 207.445312 174.316406 207.238281 173.574219 C 202.613281 174.582031 197.910156 175.109375 193.171875 175.074219 C 189.035156 175.050781 184.035156 175.132812 180.769531 172.207031 C 180.828125 172.671875 180.886719 173.136719 180.949219 173.605469 C 184.5625 167.082031 193.660156 165.617188 200.449219 166.132812 C 204.09375 166.40625 208.597656 167.253906 211.65625 169.378906 C 213.167969 170.433594 214.085938 172.25 212.953125 173.949219 C 212.019531 175.355469 210.265625 175.929688 208.738281 176.417969 C 201.117188 178.847656 192.90625 178.882812 185.265625 176.519531 C 182.15625 175.558594 177.382812 174.230469 176.75 170.449219 C 176.074219 166.402344 179.953125 163.183594 182.875 161.152344 C 189.84375 156.304688 198.28125 152.921875 206.875 154.488281 C 206.78125 153.78125 206.691406 153.078125 206.597656 152.375 C 198.988281 156.40625 190.53125 158.144531 181.957031 157.203125 C 182.328125 157.6875 182.699219 158.175781 183.070312 158.664062 C 183.976562 155.15625 189.292969 153.898438 192.214844 152.753906 C 195.921875 151.300781 199.699219 150.046875 203.53125 148.964844 C 204.992188 148.550781 204.351562 146.507812 202.914062 146.734375 C 193.46875 148.234375 183.816406 149.746094 174.246094 148.5625 C 172.007812 148.285156 169.789062 147.84375 167.617188 147.238281 C 165.730469 146.710938 162.644531 146.15625 162.164062 143.886719 C 161.75 141.910156 163.3125 139.539062 164.355469 137.960938 C 165.480469 136.253906 166.882812 134.734375 168.464844 133.441406 C 175.6875 127.554688 186.550781 127.179688 195.445312 127.054688 C 200.28125 126.988281 205.167969 127.203125 209.960938 127.882812 C 212.574219 128.253906 222.707031 130.308594 219.882812 134.828125 C 218.816406 136.539062 216.511719 137.75 214.78125 138.667969 C 212.710938 139.765625 210.496094 140.550781 208.230469 141.144531 C 203.84375 142.289062 199.28125 142.789062 194.753906 142.777344 C 190.085938 142.765625 185.445312 142.167969 180.921875 141.015625 C 177.371094 140.109375 171.945312 139.0625 169.90625 135.601562 C 167.558594 131.625 172.367188 127.675781 175.09375 125.375 C 177.996094 122.929688 181.347656 120.984375 184.890625 119.632812 C 191.9375 116.941406 199.65625 116.441406 207.09375 117.382812 C 211.367188 117.921875 215.710938 118.882812 219.550781 120.894531 C 221.429688 121.875 225.132812 123.5 223.648438 126.140625 C 222.578125 128.039062 220.3125 129.417969 218.441406 130.40625 C 214.5625 132.449219 210.0625 133.234375 205.753906 133.769531 C 200.902344 134.371094 195.988281 134.5 191.109375 134.164062 C 183.011719 133.605469 173.335938 132.246094 166.910156 126.796875 C 160.171875 121.078125 158.144531 111.117188 160.054688 102.765625 C 160.984375 98.695312 162.804688 94.738281 165.632812 91.628906 C 168.746094 88.214844 172.953125 85.832031 177.125 83.941406 C 185.210938 80.289062 194.375 78.898438 203.023438 81.257812 C 207.082031 82.367188 210.902344 84.230469 214.304688 86.703125 C 217.597656 89.089844 221.59375 92.460938 222.695312 96.546875 C 223.863281 100.886719 221.097656 104.695312 218.003906 107.414062 C 214.804688 110.226562 211.179688 112.585938 207.371094 114.488281 C 199.835938 118.246094 191.4375 120.050781 183.046875 120.277344 C 174.363281 120.511719 165.167969 119.445312 157.15625 115.945312 C 149.152344 112.449219 142.515625 105.820312 142.320312 96.613281 C 142.125 87.574219 149.863281 81.179688 157.105469 77.152344 C 172.992188 68.3125 191.59375 71.027344 207.09375 79.296875 C 214.527344 83.269531 222.453125 88.210938 226.222656 96.074219 C 230 103.957031 228.851562 112.984375 222.453125 119.078125 C 217.023438 124.25 209.3125 126.886719 202.089844 128.292969 C 194.003906 129.867188 185.574219 129.546875 177.605469 127.484375 C 169.359375 125.355469 161.582031 121.394531 154.953125 116.050781 C 148.257812 110.644531 141.832031 103.003906 141.078125 94.082031 C 140.316406 85.089844 147.046875 77.660156 153.589844 72.386719 C 160.046875 67.1875 167.757812 63.710938 175.882812 62.125 C 185.242188 60.300781 195.046875 60.929688 204.308594 63.007812 C 211.523438 64.628906 218.519531 67.316406 224.65625 71.492188 C 227.972656 73.746094 230.984375 76.445312 233.585938 79.5 C 236.308594 82.703125 239.859375 86.878906 238.15625 91.335938 C 236.707031 95.128906 232.886719 97.765625 229.585938 99.839844 C 226.035156 102.066406 222.183594 103.742188 218.160156 104.914062 C 210.390625 107.175781 202.214844 107.535156 194.175781 107.089844 C 186.644531 106.667969 179.046875 105.722656 171.796875 103.585938 C 164.503906 101.441406 157.59375 97.949219 152.070312 92.664062 C 149.035156 89.757812 145.203125 85.902344 145.117188 81.441406 C 145.027344 76.871094 148.296875 72.722656 151.324219 69.625 C 164.566406 56.078125 185.054688 57.117188 202.160156 60.945312 C 211.132812 62.953125 219.804688 66.085938 228.042969 70.152344 C 229.371094 70.808594 230.542969 68.8125 229.210938 68.15625 " fill-opacity="1" fill-rule="nonzero"/></g><g fill="#513d20" fill-opacity="1"><g transform="translate(39.968046, 337.054913)"><g><path d="M 22.242188 0.601562 C 32.117188 0.601562 39.277344 -5.957031 39.277344 -14.851562 L 39.277344 -45.234375 L 34.453125 -45.234375 L 34.453125 -15.605469 C 34.453125 -9.046875 29.25 -4.222656 22.242188 -4.222656 C 15.230469 -4.222656 10.101562 -9.046875 10.101562 -15.605469 L 10.101562 -45.234375 L 5.277344 -45.234375 L 5.277344 -14.851562 C 5.277344 -5.957031 12.441406 0.601562 22.242188 0.601562 Z M 22.242188 0.601562 "/></g></g></g><g fill="#513d20" fill-opacity="1"><g transform="translate(84.514779, 337.054913)"><g><path d="M 37.996094 -45.234375 L 37.996094 -8.066406 L 10.027344 -45.234375 L 5.503906 -45.234375 L 5.503906 0 L 10.328125 0 L 10.328125 -37.167969 L 38.222656 0 L 42.746094 0 L 42.746094 -45.234375 Z M 37.996094 -45.234375 "/></g></g></g><g fill="#513d20" fill-opacity="1"><g transform="translate(132.754896, 337.054913)"><g><path d="M 30.535156 -45.234375 L 0.679688 -45.234375 L 0.679688 -40.410156 L 13.195312 -40.410156 L 13.195312 0 L 18.019531 0 L 18.019531 -40.410156 L 30.535156 -40.410156 Z M 30.535156 -45.234375 "/></g></g></g><g fill="#513d20" fill-opacity="1"><g transform="translate(163.96022, 337.054913)"><g><path d="M 35.28125 -45.234375 L 35.28125 -25.03125 L 10.328125 -25.03125 L 10.328125 -45.234375 L 5.503906 -45.234375 L 5.503906 0 L 10.328125 0 L 10.328125 -20.203125 L 35.28125 -20.203125 L 35.28125 0 L 40.109375 0 L 40.109375 -45.234375 Z M 35.28125 -45.234375 "/></g></g></g><g fill="#513d20" fill-opacity="1"><g transform="translate(209.562206, 337.054913)"><g><path d="M 5.878906 0 L 10.707031 0 L 10.707031 -45.234375 L 5.878906 -45.234375 Z M 5.878906 0 "/></g></g></g><g fill="#513d20" fill-opacity="1"><g transform="translate(226.06937, 337.054913)"><g><path d="M 37.996094 -45.234375 L 37.996094 -8.066406 L 10.027344 -45.234375 L 5.503906 -45.234375 L 5.503906 0 L 10.328125 0 L 10.328125 -37.167969 L 38.222656 0 L 42.746094 0 L 42.746094 -45.234375 Z M 37.996094 -45.234375 "/></g></g></g><g fill="#513d20" fill-opacity="1"><g transform="translate(274.309487, 337.054913)"><g><path d="M 32.492188 0 L 39.203125 0 L 17.71875 -24.351562 L 38.375 -45.234375 L 31.664062 -45.234375 L 13.496094 -26.6875 L 10.328125 -26.6875 L 10.328125 -45.234375 L 5.503906 -45.234375 L 5.503906 0 L 10.328125 0 L 10.328125 -22.164062 L 13.570312 -22.164062 Z M 32.492188 0 "/></g></g></g></svg>